<?xml version="1.0" encoding="utf-8"?>
<!-- Generator: Adobe Illustrator 23.0.1, SVG Export Plug-In . SVG Version: 6.00 Build 0)  -->
<svg version="1.1" id="レイヤー_1" xmlns="http://www.w3.org/2000/svg" xmlns:xlink="http://www.w3.org/1999/xlink" x="0px"
	 y="0px" viewBox="0 0 949 143.2" style="enable-background:new 0 0 949 143.2;" xml:space="preserve">
<style type="text/css">
	.st0{fill:#F7F7F7;}
</style>
<title>services-marquee</title>
<g>
	<g>
		<g id="top-b">
			<g id="sc_-_visiのコピー">
				<g>
					<path class="st0" d="M41.1,133.3c-7.4-6.6-11.1-15.4-11.1-26.5v-5.4c-0.1-1,0.5-1.9,1.5-2c0.2,0,0.3,0,0.5,0h9.8
						c1-0.1,1.9,0.5,2,1.5c0,0.2,0,0.3,0,0.5v4.6c0,7.5,2.5,13.5,7.6,18c5.1,4.5,11.8,6.8,20.2,6.8c7.9,0,14.1-2.1,18.6-6.4
						c4.5-4.3,6.8-9.9,6.8-16.8c0.1-4.2-1-8.3-3.2-11.8c-2.5-3.7-5.7-6.8-9.4-9.2c-4.1-2.8-10.1-6.3-17.8-10.6
						c-6.7-3.5-13.2-7.3-19.5-11.6c-4.6-3.2-8.6-7.4-11.5-12.2c-2.9-4.8-4.4-10.7-4.4-17.6c0-10.8,3.5-19.3,10.4-25.4S57.8,0,69.4,0
						C81.8,0,91.7,3.4,99,10.2c7.3,6.8,11,15.8,11,27v4.6c0.1,1-0.5,1.9-1.5,2c-0.2,0-0.3,0-0.5,0H98c-1,0.1-1.9-0.5-2-1.5
						c0-0.2,0-0.3,0-0.5v-4.4c0-7.5-2.4-13.5-7.2-18.1S77.4,12.4,69,12.4c-7.5,0-13.3,1.9-17.5,5.8s-6.3,9.3-6.3,16.4
						c-0.1,4,0.9,8,3,11.4c2.3,3.4,5.3,6.2,8.7,8.4c3.8,2.5,9.6,5.9,17.5,10.2c7.2,3.9,14.2,8.2,20.9,12.9
						c4.6,3.3,8.6,7.4,11.6,12.2c2.9,4.6,4.3,10.2,4.3,16.9c0,11.2-3.6,20.1-10.8,26.7c-7.2,6.6-17,9.9-29.4,9.9
						C58.5,143.2,48.5,139.9,41.1,133.3z"/>
					<path class="st0" d="M232.2,14h-60c-0.4-0.1-0.7,0.2-0.8,0.6c0,0.1,0,0.1,0,0.2v49.6c-0.1,0.4,0.2,0.7,0.6,0.8
						c0.1,0,0.1,0,0.2,0h40.4c1-0.1,1.9,0.5,2,1.5c0,0.2,0,0.3,0,0.5v8.4c0.1,1-0.5,1.9-1.5,2c-0.2,0-0.3,0-0.5,0h-40.4
						c-0.4-0.1-0.7,0.2-0.8,0.6c0,0.1,0,0.1,0,0.2v50c-0.1,0.4,0.2,0.7,0.6,0.8c0.1,0,0.1,0,0.2,0h60c1-0.1,1.9,0.5,2,1.5
						c0,0.2,0,0.3,0,0.5v8.4c0.1,1-0.5,1.9-1.5,2c-0.2,0-0.3,0-0.5,0h-73c-1,0.1-1.9-0.5-2-1.5c0-0.2,0-0.3,0-0.5V3.6
						c-0.1-1,0.5-1.9,1.5-2c0.2,0,0.3,0,0.5,0h73c1-0.1,1.9,0.5,2,1.5c0,0.2,0,0.3,0,0.5V12c0.1,1-0.5,1.9-1.5,2
						C232.5,14,232.4,14,232.2,14z"/>
					<path class="st0" d="M347,140l-24.8-61.8c-0.1-0.4-0.4-0.6-0.8-0.6h-25.8c-0.4-0.1-0.7,0.2-0.8,0.6c0,0.1,0,0.1,0,0.2v61.2
						c0.1,1-0.5,1.9-1.5,2c-0.2,0-0.3,0-0.5,0h-10.2c-1,0.1-1.9-0.5-2-1.5c0-0.2,0-0.3,0-0.5V3.6c-0.1-1,0.5-1.9,1.5-2
						c0.2,0,0.3,0,0.5,0H325c6.5-0.1,12.9,1.5,18.5,4.8c5.4,3.2,9.8,7.9,12.6,13.6c3.1,6.3,4.6,13.2,4.5,20.2
						c0,9.1-2.2,16.8-6.6,23.2c-4.3,6.3-10.7,10.8-18,12.8c-0.5,0.3-0.7,0.6-0.4,1l25.8,62l0.2,0.8c0,1.1-0.6,1.6-1.8,1.6h-10.6
						C348.2,141.6,347.3,141,347,140z M294.8,14.8v50.6c-0.1,0.4,0.2,0.7,0.6,0.8c0.1,0,0.1,0,0.2,0h27.6c6.9,0,12.5-2.4,16.8-7.2
						s6.4-11.1,6.4-18.8c0-7.9-2.1-14.2-6.4-19s-9.9-7.2-16.8-7.2h-27.6c-0.4-0.1-0.7,0.2-0.8,0.6C294.8,14.7,294.8,14.7,294.8,14.8
						z"/>
					<path class="st0" d="M433.2,139.8l-36.4-136l-0.2-0.6c0-1.1,0.7-1.6,2-1.6h10.8c1-0.2,2,0.6,2.2,1.6c0,0.1,0,0.1,0,0.2
						l29.2,114.4c0.1,0.3,0.3,0.4,0.4,0.4s0.3-0.1,0.4-0.4L470.8,3.4c0.1-1.1,1.1-1.9,2.2-1.8h10.4c0.6,0,1.1,0.2,1.5,0.6
						c0.3,0.5,0.5,1,0.3,1.6l-36.4,136c-0.1,1.1-1.1,1.9-2.2,1.8h-11.2C434.3,141.7,433.3,140.9,433.2,139.8z"/>
					<path class="st0" d="M529,139.6V3.6c-0.1-1,0.5-1.9,1.5-2c0.2,0,0.3,0,0.5,0h10.2c1-0.1,1.9,0.5,2,1.5c0,0.2,0,0.3,0,0.5v136
						c0.1,1-0.5,1.9-1.5,2c-0.2,0-0.3,0-0.5,0H531c-1,0.1-1.9-0.5-2-1.5C529,139.9,529,139.8,529,139.6z"/>
					<path class="st0" d="M603.7,132.4c-7.4-7.2-11.1-16.7-11.1-28.6V39.2c0-11.9,3.7-21.4,11.1-28.5C611.1,3.6,620.9,0,633,0
						c12.3,0,22.1,3.5,29.5,10.6s11.1,16.5,11.1,28.2v1.8c0.1,1-0.5,1.9-1.5,2c-0.2,0-0.3,0-0.5,0L661.4,43c-1.3,0-2-0.6-2-1.8v-2.8
						c0-7.7-2.4-14-7.3-18.8s-11.2-7.2-19.1-7.2c-7.9,0-14.2,2.4-19,7.1s-7.2,11-7.2,18.9v66.4c0,7.9,2.4,14.2,7.2,18.9
						c4.8,4.7,11.1,7.1,19,7.1c7.9,0,14.2-2.4,19.1-7.2c4.9-4.8,7.3-11.1,7.3-18.8V102c0-1.2,0.7-1.8,2-1.8l10.2,0.6
						c1-0.1,1.9,0.5,2,1.5c0,0.2,0,0.3,0,0.5v1.4c0,11.7-3.7,21.2-11.1,28.3c-7.4,7.1-17.2,10.7-29.5,10.7
						C620.9,143.2,611.1,139.6,603.7,132.4z"/>
					<path class="st0" d="M796.6,14h-60c-0.4-0.1-0.7,0.2-0.8,0.6c0,0.1,0,0.1,0,0.2v49.6c-0.1,0.4,0.2,0.7,0.6,0.8
						c0.1,0,0.1,0,0.2,0H777c1-0.1,1.9,0.5,2,1.5c0,0.2,0,0.3,0,0.5v8.4c0.1,1-0.5,1.9-1.5,2c-0.2,0-0.3,0-0.5,0h-40.4
						c-0.4-0.1-0.7,0.2-0.8,0.6c0,0.1,0,0.1,0,0.2v50c-0.1,0.4,0.2,0.7,0.6,0.8c0.1,0,0.1,0,0.2,0h60c1-0.1,1.9,0.5,2,1.5
						c0,0.2,0,0.3,0,0.5v8.4c0.1,1-0.5,1.9-1.5,2c-0.2,0-0.3,0-0.5,0h-73c-1,0.1-1.9-0.5-2-1.5c0-0.2,0-0.3,0-0.5V3.6
						c-0.1-1,0.5-1.9,1.5-2c0.2,0,0.3,0,0.5,0h73c1-0.1,1.9,0.5,2,1.5c0,0.2,0,0.3,0,0.5V12c0.1,1-0.5,1.9-1.5,2
						C796.9,14,796.8,14,796.6,14z"/>
					<path class="st0" d="M848.9,133.3c-7.4-6.6-11.1-15.4-11.1-26.5v-5.4c-0.1-1,0.5-1.9,1.5-2c0.2,0,0.3,0,0.5,0h9.8
						c1-0.1,1.9,0.5,2,1.5c0,0.2,0,0.3,0,0.5v4.6c0,7.5,2.5,13.5,7.6,18c5.1,4.5,11.8,6.8,20.2,6.8c7.9,0,14.1-2.1,18.6-6.4
						s6.8-9.9,6.8-16.8c0.1-4.2-1-8.3-3.2-11.8c-2.5-3.7-5.7-6.8-9.4-9.2c-4.1-2.8-10.1-6.3-17.8-10.6c-6.7-3.5-13.2-7.3-19.5-11.6
						c-4.6-3.2-8.5-7.4-11.5-12.2c-2.9-4.8-4.4-10.7-4.4-17.6c0-10.8,3.5-19.3,10.4-25.4c6.9-6.1,16.2-9.2,27.8-9.2
						c12.4,0,22.3,3.4,29.6,10.2c7.3,6.8,11,15.8,11,27v4.6c0.1,1-0.5,1.9-1.5,2c-0.2,0-0.3,0-0.5,0h-10c-1,0.1-1.9-0.5-2-1.5
						c0-0.2,0-0.3,0-0.5v-4.4c0-7.5-2.4-13.5-7.2-18.1s-11.4-6.9-19.8-6.9c-7.5,0-13.3,1.9-17.5,5.8s-6.3,9.3-6.3,16.4
						c-0.1,4,0.9,8,3,11.4c2.3,3.4,5.3,6.2,8.7,8.4c3.8,2.5,9.6,5.9,17.5,10.2c7.2,3.9,14.2,8.2,20.9,12.9
						c4.6,3.3,8.6,7.4,11.6,12.2c2.9,4.6,4.3,10.2,4.3,16.9c0,11.2-3.6,20.1-10.8,26.7c-7.2,6.6-17,9.9-29.4,9.9
						C866.3,143.2,856.3,139.9,848.9,133.3z"/>
				</g>
			</g>
		</g>
	</g>
</g>
</svg>
