<?xml version="1.0" encoding="utf-8"?>
<!-- Generator: Adobe Illustrator 23.0.1, SVG Export Plug-In . SVG Version: 6.00 Build 0)  -->
<svg version="1.1" id="レイヤー_1" xmlns="http://www.w3.org/2000/svg" xmlns:xlink="http://www.w3.org/1999/xlink" x="0px"
	 y="0px" viewBox="0 0 650 143.2" style="enable-background:new 0 0 650 143.2;" xml:space="preserve">
<style type="text/css">
	.st0{fill:#F7F7F7;}
</style>
<title>vision-marquee_1</title>
<g>
	<g>
		<g id="top-b">
			<g id="sc_-_visiのコピー">
				<g>
					<path class="st0" d="M55.2,139.8L18.8,3.8l-0.2-0.6c0-1.1,0.7-1.6,2-1.6h10.8c1-0.2,2,0.6,2.2,1.6c0,0.1,0,0.1,0,0.2
						l29.2,114.4c0.1,0.3,0.3,0.4,0.4,0.4s0.3-0.1,0.4-0.4L92.8,3.4c0.1-1.1,1.1-1.9,2.2-1.8h10.4c0.6,0,1.1,0.2,1.5,0.6
						c0.3,0.5,0.5,1,0.3,1.6l-36.4,136c-0.1,1.1-1.1,1.9-2.2,1.8H57.4C56.3,141.7,55.3,140.9,55.2,139.8z"/>
					<path class="st0" d="M151,139.6V3.6c-0.1-1,0.5-1.9,1.5-2c0.2,0,0.3,0,0.5,0h10.2c1-0.1,1.9,0.5,2,1.5c0,0.2,0,0.3,0,0.5v136
						c0.1,1-0.5,1.9-1.5,2c-0.2,0-0.3,0-0.5,0H153c-1,0.1-1.9-0.5-2-1.5C151,139.9,151,139.8,151,139.6z"/>
					<path class="st0" d="M222.3,133.3c-7.4-6.6-11.1-15.4-11.1-26.5v-5.4c-0.1-1,0.5-1.9,1.5-2c0.2,0,0.3,0,0.5,0h9.8
						c1-0.1,1.9,0.5,2,1.5c0,0.2,0,0.3,0,0.5v4.6c0,7.5,2.5,13.5,7.6,18c5.1,4.5,11.8,6.8,20.2,6.8c7.9,0,14.1-2.1,18.6-6.4
						s6.8-9.9,6.8-16.8c0.1-4.2-1-8.3-3.2-11.8c-2.5-3.7-5.7-6.8-9.4-9.2c-4.1-2.8-10.1-6.3-17.8-10.6c-6.7-3.5-13.2-7.3-19.5-11.6
						c-4.6-3.2-8.6-7.4-11.5-12.2c-2.9-4.8-4.4-10.7-4.4-17.6c0-10.8,3.5-19.3,10.4-25.4C229.7,3.1,239,0,250.6,0
						c12.4,0,22.3,3.4,29.6,10.2s11,15.8,11,27v4.6c0.1,1-0.5,1.9-1.5,2c-0.2,0-0.3,0-0.5,0h-10c-1,0.1-1.9-0.5-2-1.5
						c0-0.2,0-0.3,0-0.5v-4.4c0-7.5-2.4-13.5-7.2-18.1c-4.8-4.6-11.4-6.9-19.8-6.9c-7.5,0-13.3,1.9-17.5,5.8s-6.3,9.3-6.3,16.4
						c-0.1,4,0.9,8,3,11.4c2.3,3.4,5.3,6.2,8.7,8.4c3.8,2.5,9.6,5.9,17.5,10.2c7.2,3.9,14.2,8.2,20.9,12.9
						c4.6,3.3,8.6,7.4,11.6,12.2c2.9,4.6,4.3,10.2,4.3,16.9c0,11.2-3.6,20.1-10.8,26.7c-7.2,6.6-17,9.9-29.4,9.9
						C239.7,143.2,229.7,139.9,222.3,133.3z"/>
					<path class="st0" d="M338.4,139.6V3.6c-0.1-1,0.5-1.9,1.5-2c0.2,0,0.3,0,0.5,0h10.2c1-0.1,1.9,0.5,2,1.5c0,0.2,0,0.3,0,0.5v136
						c0.1,1-0.5,1.9-1.5,2c-0.2,0-0.3,0-0.5,0h-10.2c-1,0.1-1.9-0.5-2-1.5C338.4,139.9,338.4,139.8,338.4,139.6z"/>
					<path class="st0" d="M421.5,138.1c-6.1-3.3-11.1-8.2-14.4-14.3c-3.5-6.5-5.2-13.8-5.1-21.2V40.8c-0.1-7.4,1.6-14.8,5.1-21.3
						c3.3-6.1,8.3-11.1,14.4-14.4c13.5-6.8,29.5-6.8,43,0c6.1,3.3,11.1,8.3,14.5,14.4c3.5,6.5,5.3,13.9,5.2,21.3v61.8
						c0.1,7.4-1.6,14.7-5.2,21.2c-3.4,6-8.4,11-14.5,14.3C451,144.9,435,144.9,421.5,138.1z M462.6,123.2c4.9-5.1,7.4-11.7,7.4-20
						V40.4c0-8.4-2.5-15.2-7.4-20.3s-11.5-7.7-19.6-7.7c-8,0-14.5,2.6-19.4,7.7s-7.4,11.9-7.4,20.3v62.8c0,8.3,2.5,14.9,7.4,20
						s11.4,7.6,19.4,7.6C451.1,130.8,457.7,128.3,462.6,123.2z"/>
					<path class="st0" d="M605.2,1.6h10.2c1-0.1,1.9,0.5,2,1.5c0,0.2,0,0.3,0,0.5v136c0.1,1-0.5,1.9-1.5,2c-0.2,0-0.3,0-0.5,0h-10.8
						c-1,0.1-2-0.5-2.4-1.4l-53.6-107c-0.2-0.2-0.4-0.4-0.7-0.4c-0.2,0-0.3,0.2-0.3,0.6l0.2,106.2c0.1,1-0.5,1.9-1.5,2
						c-0.2,0-0.3,0-0.5,0h-10.2c-1,0.1-1.9-0.5-2-1.5c0-0.2,0-0.3,0-0.5V3.6c-0.1-1,0.5-1.9,1.5-2c0.2,0,0.3,0,0.5,0h10.8
						c1-0.1,2,0.5,2.4,1.4l53.6,107.4c0.2,0.2,0.4,0.4,0.7,0.4c0.2,0,0.3-0.2,0.3-0.6L603.2,3.6c-0.1-1,0.5-1.9,1.5-2
						C604.9,1.6,605,1.6,605.2,1.6z"/>
				</g>
			</g>
		</g>
	</g>
</g>
</svg>
